<mxfile host="app.diagrams.net" modified="2023-12-02T04:34:47.951Z" agent="Mozilla/5.0 (Linux; Android 10; K) AppleWebKit/537.36 (KHTML, like Gecko) Chrome/119.0.0.0 Safari/537.36" etag="9QJYI0rU9e9phecpLui8" version="22.1.5" type="github">
  <diagram name="PÃ¡gina-1" id="M7Ff38gAhMFPNSKYbJVL">
    <mxGraphModel dx="694" dy="1040" grid="0" gridSize="10" guides="1" tooltips="1" connect="1" arrows="1" fold="1" page="0" pageScale="1" pageWidth="827" pageHeight="1169" math="0" shadow="0">
      <root>
        <mxCell id="0" />
        <mxCell id="1" parent="0" />
      </root>
    </mxGraphModel>
  </diagram>
</mxfile>
